<svg id="Layer_1" data-name="Layer 1" xmlns="http://www.w3.org/2000/svg" viewBox="0 0 500 500"><defs><style>.cls-1{fill:#fafafa;}.cls-2{fill:#333;}</style></defs><rect id="background" class="cls-1" width="500" height="500"/><polyline class="cls-2" points="272.21 280.75 310.36 333.5 310.36 301.36 415.66 301.36 370.78 239.64 185 239.64 290.43 377.86 288.18 411.29 144.82 220.68 246.07 220.68 206.35 167.96 206.35 201.39 102.34 201.71 310.36 476.08 310.36 369.82 228.39 262.79 359.35 262.79 370.14 277.57 271.14 280.79"/><polyline class="cls-2" points="286.34 201.39 314.81 201.39 228.39 89.21 228.07 122 286.34 201.39 274.52 220.68 208.14 131.64 208.14 24.93 355.09 220.68 274.52 220.68"/></svg>